<?xml version="1.0" encoding="UTF-8"?>
<svg id="Livello_1" data-name="Livello 1" xmlns="http://www.w3.org/2000/svg" viewBox="0 0 1229.93 1231.45">
  <defs>
    <style>
      .cls-1 {
        fill: none;
        stroke: #cc82ff;
        stroke-linecap: square;
        stroke-miterlimit: 10;
        stroke-width: 82.76px;
      }
    </style>
  </defs>
  <path class="cls-1" d="M67.02,551.39c-11.51,133.05,33.32,265.21,101.48,380.96,83.42,141.67,275.12,301.79,431.37,212.09,192.52-110.52,169.73-382.09,107.82-578.25-18.02-57.1-44.32-113.2-85.38-156.35-41.06-43.15-98.62-71.88-154.43-66.34-71.44,7.09-128.2,72.25-136.67,146.77-8.46,74.52,27.31,153.41,84.23,203.61,70.41,62.1,182.82,92.2,266.13,58.93,76.49-36.36,130.67-73.01,168.05-125.95,50.4-71.38,62.56-163.79,70.44-251.95,13.48-150.82,106.58-276.65,247.61-312.91"/>
</svg>